HIERARCHY
ROOT hip
{
  OFFSET 0.0 0.0 0.0
  CHANNELS 6 Xposition Yposition Zposition Zrotation Yrotation Xrotation
  JOINT torso
  {
    OFFSET 0.0 0.0 0.0
    CHANNELS 3 Zrotation Xrotation Yrotation
    JOINT neck
    {
      OFFSET -8.059630999999968 325.56260699999996 64.6221310000002
      CHANNELS 3 Zrotation Xrotation Yrotation
      JOINT head
      {
        OFFSET 34.685424000000125 375.1179809999999 232.79357900000002
        CHANNELS 3 Zrotation Xrotation Yrotation
        End Site
        {
          OFFSET 0.0 0.0 0.0
        }
      }
    }
    JOINT left_collar
    {
      OFFSET -8.059630999999968 325.56260699999996 64.6221310000002
      CHANNELS 3 Zrotation Xrotation Yrotation
      JOINT left_upper_arm
      {
        OFFSET -124.124665 -15.370300999999927 25.582641999999964
        CHANNELS 3 Zrotation Xrotation Yrotation
        JOINT left_forearm
        {
          OFFSET -268.19913399999996 105.06054699999993 114.74548300000004
          CHANNELS 3 Zrotation Xrotation Yrotation
          JOINT left_hand
          {
            OFFSET -235.82003099999991 -10.198180999999977 -38.67455999999993
            CHANNELS 3 Zrotation Xrotation Yrotation
            End Site
            {
              OFFSET 0.0 0.0 0.0
            }
          }
        }
      }
    }
    JOINT right_collar
    {
      OFFSET -8.059630999999968 325.56260699999996 64.6221310000002
      CHANNELS 3 Zrotation Xrotation Yrotation
      JOINT right_upper_arm
      {
        OFFSET 162.73931899999997 -2.8598030000000563 26.244994999999903
        CHANNELS 3 Zrotation Xrotation Yrotation
        JOINT right_forearm
        {
          OFFSET 284.6506340000001 103.07031299999994 145.84521499999994
          CHANNELS 3 Zrotation Xrotation Yrotation
          JOINT right_hand
          {
            OFFSET 226.332337 -12.198241999999937 -49.27258299999994
            CHANNELS 3 Zrotation Xrotation Yrotation
            End Site
            {
              OFFSET 0.0 0.0 0.0
            }
          }
        }
      }
    }
  }
}
MOTION
Frames: 11
Frame Time: 0.01
344.78082091691726 91.08916618898908 352.04579249091717 1.7898684753329965 -33.66025752784222 -12.490556964836168 0.27893684494479576 1.2447218571684966 -0.02156956264459848 5.53334480167934 -2.536452674378453 -3.264286032037816 0.0 0.0 0.0 5.766746684945751 -0.05236166745890997 7.1222069463985225 45.54495394282808 19.98672513634643 -27.775322402069595 7.607756119769732 2.702317285735141 -36.024505920330796 0.0 0.0 0.0 -3.8111082946075965 0.16136791084639823 -8.863559358357428 -26.307942990800765 12.532920729607849 1.0157362957985876 -50.51329111362191 9.882366815544982 40.4951240439414 0.0 0.0 0.0
346.80175374205015 91.7235739182666 351.1946942451628 1.982544470977063 -33.335047006535724 -13.057200846982749 0.24947265936537263 1.2512689733130253 -0.015852189457555718 5.571317873413598 -2.8725717064679865 -3.2678941823215064 0.0 0.0 0.0 5.820555875535875 0.01995455648168644 6.751337083990416 45.519441751667344 19.85626913188856 -26.633087627361363 8.109341040458443 2.7742442503161224 -35.974060900999405 0.0 0.0 0.0 -3.705512233088752 0.16515226904943625 -8.612061983477075 -24.90652641521069 12.092784248424286 -1.6369943093956052 -52.72338947717092 9.29691084947191 38.753864311081735 0.0 0.0 0.0
348.65931139660063 92.37432215802744 350.37203936827615 2.165532724218094 -33.03886663731606 -13.587102605286209 0.22280860883631237 1.264182383300115 -0.010494125679084696 5.590797933191903 -3.1861484433600764 -3.26134966134584 0.0 0.0 0.0 5.869383038650325 0.08278382840252124 6.4328888723731685 45.48721913495421 19.736212691740697 -25.61884487854645 8.561941523127636 2.834040179027123 -35.88870620596309 0.0 0.0 0.0 -3.610042469762169 0.16923368501925168 -8.363105320903733 -23.49099651049847 11.693259254248181 -4.028994048750347 -54.611330773282084 8.64579123074645 37.11412132109622 0.0 0.0 0.0
350.33921639276974 93.03172133360101 349.57565221077715 2.337385440709623 -32.77203766134321 -14.075887265772279 0.19836469770663953 1.2825310254056774 -0.005414538963977046 5.5935338196585125 -3.475882678698476 -3.2457280455096993 0.0 0.0 0.0 5.912942501817094 0.13658862692881338 6.163203865984457 45.453802690922636 19.62914097530681 -24.727997579469974 8.965729936024843 2.881973900214377 -35.773076376058135 0.0 0.0 0.0 -3.524648183147528 0.1735096879695973 -8.120220308752128 -22.09219585951512 11.338110038354426 -6.180071654388104 -56.214277198348334 7.964360216882649 35.59348251820305 0.0 0.0 0.0
351.82956521808904 93.68617766863363 348.80290345708056 2.496776891509758 -32.534494524101696 -14.519693398527428 0.1756368641597987 1.305315898536385 -0.0005475161095194874 5.581489501661523 -3.740755203085838 -3.2222486168599764 0.0 0.0 0.0 5.951261616579819 0.18191213674609566 5.938561344258553 45.42407120311533 19.537037533516553 -23.955289623747255 9.321409320806437 2.9185877556208073 -35.63212474132879 0.0 0.0 0.0 -3.4490401077099757 0.1778812444128611 -7.88656307787 -20.736698957788835 11.028376877211782 -8.108424987187618 -57.57031311707429 7.281641787835436 34.20219942831676 0.0 0.0 0.0
353.12094101555647 94.3283788690211 348.05085059900034 2.642514415182401 -32.32580490912898 -14.915216953408729 0.15420471129850452 1.3314901495836695 0.004156762669923507 5.556811751155482 -3.980011258183129 -3.1922550429256242 0.0 0.0 0.0 5.984655251030526 0.21936044183499778 5.7552672399518565 45.40220639217838 19.461354366988502 -23.294955299502863 9.630168542970798 2.9446557484967313 -35.471006475837015 0.0 0.0 0.0 -3.382733272039572 0.18225280045071868 -7.664861969862976 -19.447107536233762 10.763240693822564 -9.8304666552615 -58.71634525861143 6.620362268465686 32.945064262711846 0.0 0.0 0.0
354.20643986716425 94.94946314400443 347.3163792292265 2.7735440575883126 -32.14519842306814 -15.25973274823283 0.13373566332861234 1.3599789963346502 0.008731613340242663 5.521793241040626 -4.193140533171945 -3.15719217444524 0.0 0.0 0.0 6.0136867576051545 0.24958458922034288 5.609718524973519 45.391669370543156 19.403082095641288 -22.74085607035569 9.89363609377979 2.961136540281887 -35.29495809738004 0.0 0.0 0.0 -3.3250920813041422 0.18653285751796359 -7.457385463755391 -18.24241481312859 10.54067455174704 -11.360763359831875 -59.68662113283867 5.997543252870548 31.82302219812908 0.0 0.0 0.0
355.08161476886676 95.54116745086318 346.59634090777934 2.8889514833848877 -31.991603522041117 -15.551094057877465 0.11398586752172936 1.3896989648149822 0.013194111068109941 5.4788312615516634 -4.3798545334892225 -3.1185792006917854 0.0 0.0 0.0 6.0391174217949235 0.2732631801152162 5.498444640629171 45.3952073182578 19.362817558773813 -22.286607168675868 10.113831918179175 2.969123650403521 -35.10917604989349 0.0 0.0 0.0 -3.2753759268725484 0.1906350496981061 -7.265931775649966 -17.13839115776079 10.357925128581371 -12.712042446395083 -60.511830824572414 5.425399368877939 30.83448901911659 0.0 0.0 0.0
355.7443457209882 96.0959519647282 345.88768446401406 2.9879591323261327 -31.86369192448228 -15.787712449036368 0.09479830477247961 1.4195760187573248 0.017545904442430656 5.4303823200978965 -4.5400618396724886 -3.0779794920494736 0.0 0.0 0.0 6.0618468682807904 0.2910858295662384 5.418129771549803 45.41488472642723 19.34082736061553 -21.92569707744628 10.293116075967557 2.9697950969808344 -34.918697470451136 0.0 0.0 0.0 -3.232783699249832 0.1944796156729352 -7.091839078130132 -16.147962979847367 10.211863437344489 -13.89523623636995 -61.2186849181971 4.912341803208585 29.97639134078128 0.0 0.0 0.0
356.1946479355068 96.60709894666566 345.1875786529814 3.069920817929208 -31.75992944750296 -15.968521397594058 0.0760986275153571 1.448562320127854 0.021774449062611723 5.378913050918484 -4.67384153569272 -3.036967592974089 0.0 0.0 0.0 6.082847352542164 0.3037375677574063 5.36562139645331 45.45213358474369 19.33710673765223 -21.65160274678533 10.434132802308273 2.9643645224411794 -34.728286526251544 0.0 0.0 0.0 -3.196495730436298 0.19799509970085877 -6.936013760475173 -15.281568976393773 10.099237965579958 -14.91954540841547 -61.82983488965963 4.4639539662586545 29.24496784039324 0.0 0.0 0.0
356.4344326692938 97.0687853244746 344.49352491440874 3.13431506531492 -31.678631932524773 -16.09292818088192 0.05788920479133294 1.4756515367470253 0.025854540954081445 5.326848110031982 -4.781414973513745 -2.99709400260758 0.0 0.0 0.0 6.103095292215818 0.3118840834246392 5.337931443783156 45.50781701616639 19.351433654450535 -21.4579028609539 10.539748642207682 2.954035580648966 -34.54232975969115 0.0 0.0 0.0 -3.16571180171276 0.20112007823682487 -6.798973053878759 -14.54748539369402 10.01685689697087 -15.792509207080977 -62.3640065321577 4.083862998382302 28.636375049720698 0.0 0.0 0.0
